<svg version="1.2" xmlns="http://www.w3.org/2000/svg" viewBox="0 0 568 117" width="568" height="117">
	<title>New Project</title>
	<style>
		.s0 { fill: #28282B } 
	</style>
	<path id="TravelGenie" class="s0" aria-label="TravelGenie"  d="m51.3 92.1h-15.7v-48.8h-17.6v-13.2h50.9v13.2h-17.6zm40.4-17.2l-0.2 17.2h-15.7v-47.7h12.7l1.3 9.8h0.3q0.9-5.5 4.2-7.9 3.4-2.4 9.9-2.4 2.7 0 4.8 0.3 2.2 0.2 3.6 0.4v15.3l-0.1 0.2q-1.6-0.4-3.7-0.7-1.9-0.3-4.5-0.3-3.6 0-6.5 1.2-2.9 1.1-4.6 4.6-1.5 3.3-1.5 10zm45.9-31q9.4 0 15.2 2 5.8 1.9 8.5 7.2 2.7 5.2 2.7 15.1v23.9h-14.2l-0.5-4.5h-0.3q-1.9 2.5-5.8 3.9-3.9 1.5-10.2 1.5-16.9 0-16.9-15.9 0-6.7 4.4-10.6 4.5-3.9 14.1-3.9h14.5q-0.7-4.1-3.5-5.5-2.9-1.4-9.7-1.4-4.3 0-8.6 0.6-4.1 0.6-7.2 1.4l-0.3-0.2 0.1-11.3q2-0.6 5-1.1 3-0.6 6.4-0.9 3.4-0.3 6.3-0.3zm-0.5 37.5q6 0 9.1-1.4 3-1.6 3.1-4.9v-2.5h-11.1q-4.3 0-6 1.3-1.7 1.2-1.7 3.2 0 2.5 1.7 3.5 1.8 0.8 4.9 0.8zm82.2-37v0.3l-15.6 47.4h-19.6l-14.7-47.5v-0.2h17.6q2.1 7.6 3.9 16.6 1.8 8.9 3.3 17.1h0.4q1.4-8.2 3.2-17.1 1.9-9 3.9-16.6zm48.9 35.3v10.8q-2.7 1-7.6 1.8-4.8 0.7-11.5 0.7-8.4 0-14.4-2.2-5.9-2.2-8.9-7.5-3-5.4-3-14.9 0-12.9 5.8-18.7 6-5.8 18.5-5.8 8.9 0 14 2.5 5.2 2.6 7.3 7.3 2.3 4.6 2.3 11 0 1.8-0.2 4-0.1 2.1-0.5 4.2l-0.4 0.4h-32.2q0.6 4.3 4 5.7 3.4 1.4 11.1 1.4 5.1 0 8.4-0.2 3.4-0.3 6.9-0.8zm-31.1-16.7h20q0-2.3-0.8-4-0.7-1.8-2.9-2.6-2.1-1-6.3-1-6.2 0-8.2 2.1-1.8 2.1-1.8 5.5zm57.6-36.8v65.9h-15.7v-65.9zm51.5 53.2v-5.6q0-3.2 0.3-5.9l-0.2-0.3q-2.8 0.4-6 0.6-3.2 0.1-6 0v-12.7l25.6-0.1v33.3q-4.5 2-10.3 3.2-5.7 1.1-14.5 1.1-11.8 0-18.4-3.1-6.7-3.3-9.4-10.3-2.8-7.2-2.8-19 0-9.6 2.2-15.8 2.2-6.2 6.4-9.5 4.4-3.4 10.5-4.7 6.2-1.4 14.1-1.4 4.7 0 9.5 0.4 4.8 0.4 9.5 1.5v12.9l-0.3 0.2q-4.2-1-8.3-1.4-4-0.4-8.1-0.4-6 0-10.5 1.3-4.4 1.2-6.8 5-2.5 3.8-2.5 11.9 0 7.9 1.3 12.1 1.3 4.1 5 5.7 3.7 1.5 10.6 1.5 0.8 0 2.7 0 1.9-0.1 3.7-0.2 1.9-0.1 2.7-0.3zm66.5 0.3v10.9q-2.7 0.9-7.6 1.7-4.8 0.7-11.5 0.7-8.4 0-14.4-2.2-5.9-2.2-8.9-7.5-3.1-5.4-3.1-14.9 0-12.9 5.9-18.7 6-5.8 18.4-5.8 9 0 14.1 2.6 5.2 2.5 7.3 7.2 2.3 4.6 2.3 11 0 1.8-0.2 4-0.1 2.2-0.5 4.2l-0.4 0.4h-32.3q0.7 4.3 4.1 5.7 3.4 1.4 11 1.4 5.1 0 8.5-0.2 3.4-0.3 6.9-0.8zm-31.1-16.7h19.9q0-2.3-0.7-4-0.7-1.8-2.9-2.6-2.1-1-6.3-1-6.2 0-8.2 2.1-1.8 2.1-1.8 5.5zm57.6 4.5v24.6h-15.7v-47.7h14.9l0.8 8.7h0.3q1.3-4.4 4.9-6.7 3.5-2.5 9.8-2.5 8.5 0 12.5 4.8 4.1 4.8 4.1 16.7v26.7h-15.6l-0.1-23.7q0-5.5-1.7-7.8-1.7-2.4-6.3-2.4-4.3 0-6.1 2.2-1.7 2-1.8 7.1zm57.2-40.8q0.3 3.5 0.3 5.8 0 1.4-0.1 2.9 0 1.4-0.2 3.1-2 0.4-4 0.6-2 0.2-3.9 0.2-1.9 0-3.8-0.2-1.9-0.2-3.9-0.6-0.2-1.6-0.3-3-0.1-1.5-0.1-2.9 0-1.2 0.1-2.7 0.1-1.5 0.3-3.2 2-0.5 4-0.6 2-0.2 4-0.2 1.8 0 3.7 0.2 2 0.1 3.9 0.6zm0 17.7v47.7h-15.7v-47.7zm53 35.3v10.9q-2.8 0.9-7.7 1.7-4.8 0.7-11.5 0.7-8.4 0-14.4-2.1-5.8-2.3-8.9-7.6-3-5.4-3-14.9 0-12.9 5.9-18.7 5.9-5.8 18.4-5.8 8.9 0 14 2.6 5.2 2.5 7.3 7.2 2.3 4.6 2.3 11 0 1.8-0.2 4-0.1 2.2-0.5 4.2l-0.4 0.4h-32.2q0.7 4.3 4 5.7 3.4 1.4 11.1 1.4 5.1 0 8.4-0.2 3.4-0.3 7-0.8zm-31.2-16.7h20q0-2.3-0.8-4-0.7-1.8-2.8-2.6-2.2-1-6.4-1-6.2 0-8.1 2.1-1.9 2.1-1.9 5.5z"/>
</svg>